<?xml version="1.0" encoding="UTF-8"?>
<svg width="49px" height="48px" viewBox="0 0 49 48" version="1.1" xmlns="http://www.w3.org/2000/svg" xmlns:xlink="http://www.w3.org/1999/xlink">
    <!-- Generator: Sketch 41 (35326) - http://www.bohemiancoding.com/sketch -->
    <title>arrow1</title>
    <desc>Created with Sketch.</desc>
    <defs></defs>
    <g id="Page-1" stroke="none" stroke-width="1" fill="none" fill-rule="evenodd">
        <g id="Home1" transform="translate(-667.000000, -821.000000)">
            <g id="arrow" transform="translate(667.000000, 821.000000)">
                <g id="arrow1">
                    <path d="M41.638509,47.5111693 C43.4554979,47.5025306 45.246571,46.6026748 46.2990423,45.1254715 C46.8360763,44.3998277 47.1988982,43.5460445 47.337116,42.6548273 C47.4753339,41.7650499 47.3975863,40.8493566 47.411984,39.9437417 L47.2636878,29.0518867 L46.7439311,7.26673695 C46.6964187,5.67291231 45.8771899,4.14675682 44.5871566,3.27281683 C43.9536581,2.82648834 43.2208155,2.53565494 42.4620571,2.43919039 C41.7652087,2.34128608 40.8005633,2.42335293 39.8992677,2.43055177 L29.0074127,2.68107164 C21.7452162,2.81353042 14.4844595,2.85528373 7.22226296,2.87688027 C5.85160256,2.87256096 4.49246031,3.52621623 3.67323156,4.64779654 C3.25569845,5.19490889 2.9720639,5.84136532 2.85976189,6.52237621 C2.74745988,7.11268164 2.79497227,8.10900201 2.77769504,9.0059783 L2.6293988,19.8978333 L2.10964207,41.682983 C2.06788876,43.2768077 2.80217111,44.9008675 4.11092144,45.8971878 C4.75017902,46.4039866 5.5161363,46.7610494 6.32960597,46.913665 C7.11284049,47.0648408 8.06020871,47.0216477 8.96150431,47.0619612 L19.8533593,47.3110413 C27.1155558,47.4435001 34.3763125,47.4852534 41.638509,47.5111693 M41.638509,47.5111693 C34.3763125,47.5370851 27.1155558,47.5788384 19.8533593,47.7112972 L8.96150431,47.9603773 C8.05157009,47.9618171 7.17187103,48.0654805 6.15683365,47.9315819 C5.17779051,47.7976834 4.22898252,47.4147047 3.41695262,46.8344777 C1.7655372,45.6999394 0.720264664,43.7231362 0.677071584,41.682983 L0.157314856,19.8978333 L0.0104583843,9.0059783 C0.0306151549,8.09316455 -0.0687289288,7.26097788 0.104043391,6.05589095 C0.279695249,4.94150949 0.733222588,3.87320064 1.4041551,2.9690255 C2.71722472,1.13187984 4.9575058,0.00454045362 7.22226296,0.000221145626 C14.4844595,0.0218176856 21.7452162,0.0635709961 29.0074127,0.196029774 L39.8992677,0.446549638 C40.8092019,0.492622256 41.6716237,0.426392867 42.7716075,0.615002649 C43.8068016,0.805052201 44.7872845,1.25282046 45.6065133,1.89351781 C47.2737662,3.15187621 48.2369719,5.22658381 48.1894595,7.26673695 L47.668263,29.0518867 L47.5214065,39.9437417 C47.4969304,40.8493566 47.5674791,41.7621703 47.4191829,42.669225 C47.2694469,43.5705206 46.8936671,44.4300629 46.3436752,45.1571464 C45.265288,46.638669 43.4554979,47.5212476 41.638509,47.5111693" id="Page-1" fill="#585858"></path>
                    <path d="M21.3242351,15.1693138 C22.3773941,15.9462608 23.4095545,16.7442065 24.4045637,17.5809187 C26.3961972,19.2511126 28.3151434,20.9939939 30.1226357,22.8483291 C30.7622844,23.5041305 30.7525928,24.5088313 30.1226357,25.1226357 C28.4379043,26.7766768 26.6869467,28.366107 24.8439184,29.860236 C23.0025054,31.3575955 21.0932508,32.7871135 18.9691647,34.0018 C20.1838512,31.8777139 21.6133692,29.9684594 23.1107287,28.1270464 C24.6048577,26.2840181 25.0279046,25.645852 26.6819458,23.9611206 C24.8276106,22.1536284 24.2494973,21.3978125 22.5793034,19.4045637 C21.7442065,18.4095545 20.9462608,17.3773941 20.1676985,16.3242351 C19.4133653,15.2484622 18.6509557,14.1807657 18,13 C19.1791504,13.6509557 20.2468469,14.4133653 21.3242351,15.1693138 Z" id="Fill-1" fill="#4E4E4E" transform="translate(24.301032, 23.500900) scale(-1, 1) translate(-24.301032, -23.500900) "></path>
                </g>
            </g>
        </g>
    </g>
</svg>