<svg id="Calque_3" data-name="Calque 3" xmlns="http://www.w3.org/2000/svg" xmlns:xlink="http://www.w3.org/1999/xlink" viewBox="0 0 76.21 38.65"><defs><style>.cls-1,.cls-2{fill:none;}.cls-1{clip-rule:evenodd;}.cls-3{clip-path:url(#clip-path);}.cls-4{clip-path:url(#clip-path-2);}.cls-5{fill:#fff;}.cls-6{clip-path:url(#clip-path-3);}.cls-7{clip-path:url(#clip-path-4);}.cls-8{clip-path:url(#clip-path-5);}.cls-9{clip-path:url(#clip-path-6);}</style><clipPath id="clip-path" transform="translate(-6.07 -14.98)"><path class="cls-1" d="M7.8,21c3-.22,6.06-.32,9.09-.49L26,20.21c6.06-.16,12.12-.15,18.19-.23,6.06.08,12.12.07,18.19.23l9.09.28c3,.17,6.06.26,9.09.49-3,.23-6.06.32-9.09.49l-9.09.28c-6.06.16-12.12.15-18.19.23-6.06-.08-12.13-.07-18.19-.23l-9.09-.28c-3-.16-6.06-.26-9.09-.49"/></clipPath><clipPath id="clip-path-2" transform="translate(-6.07 -14.98)"><rect class="cls-2" x="-268.49" y="-315.02" width="497.94" height="900"/></clipPath><clipPath id="clip-path-3" transform="translate(-6.07 -14.98)"><path class="cls-1" d="M7.8,33.76c3-.22,6.06-.32,9.09-.49L26,33c6.06-.16,12.12-.15,18.19-.23,6.06.08,12.12.07,18.19.23l9.09.28c3,.17,6.06.26,9.09.49-3,.23-6.06.32-9.09.49l-9.09.28c-6.06.16-12.12.15-18.19.23-6.06-.08-12.13-.07-18.19-.23l-9.09-.28c-3-.16-6.06-.26-9.09-.49"/></clipPath><clipPath id="clip-path-4" transform="translate(-6.07 -14.98)"><rect class="cls-2" x="-268.49" y="-302.24" width="497.94" height="900"/></clipPath><clipPath id="clip-path-5" transform="translate(-6.07 -14.98)"><path class="cls-1" d="M7.8,47.63c3-.22,6.06-.32,9.09-.49L26,46.86c6.06-.16,12.12-.15,18.19-.23,6.06.08,12.12.07,18.19.23l9.09.28c3,.17,6.06.26,9.09.49-3,.23-6.06.32-9.09.49l-9.09.28c-6.06.16-12.12.15-18.19.23-6.06-.08-12.13-.07-18.19-.23l-9.09-.28c-3-.16-6.06-.26-9.09-.49"/></clipPath><clipPath id="clip-path-6" transform="translate(-6.07 -14.98)"><rect class="cls-2" x="-268.49" y="-288.37" width="497.94" height="900"/></clipPath></defs><title>hoverMenu_index</title><g class="cls-3"><g class="cls-4"><rect class="cls-5" width="76.21" height="12"/></g></g><g class="cls-6"><g class="cls-7"><rect class="cls-5" y="12.78" width="76.21" height="12"/></g></g><g class="cls-8"><g class="cls-9"><rect class="cls-5" y="26.65" width="76.21" height="12"/></g></g></svg>