<svg width="30" height="31" viewBox="0 0 30 31" xmlns="http://www.w3.org/2000/svg"><title>codepen</title><path d="M3.616 19.856l4.503-3.013 5.59 3.733v6.01l-10.094-6.73zm-1.038-2.41v-4.32l3.23 2.16-3.23 2.16zm13.71 9.14v-6.01l5.593-3.733 4.504 3.013-10.095 6.73zM15 18.333l-4.554-3.047L15 12.24l4.554 3.046L15 18.333zM8.12 13.73l-4.504-3.015 10.095-6.73v6.01L8.12 13.73zm16.07 1.556l3.232-2.16v4.32l-3.23-2.16zm-2.31-1.557l-5.59-3.735v-6.01l10.094 6.73-4.503 3.014zM30 10.714c0-.418-.218-.837-.57-1.07L15.72.502C15.502.37 15.25.286 15 .286s-.502.083-.72.217L.57 9.643c-.352.235-.57.654-.57 1.072v9.14c0 .42.218.838.57 1.072l13.71 9.14c.218.135.47.22.72.22s.502-.085.72-.22l13.71-9.14c.352-.234.57-.652.57-1.07v-9.142z" fill="#E3E3E3" fill-rule="evenodd"/></svg>