<svg width="26" height="26" viewBox="0 0 26 26" xmlns="http://www.w3.org/2000/svg"><title>github</title><path d="M12.857.25c7.098 0 12.857 5.76 12.857 12.857 0 5.675-3.683 10.497-8.79 12.204-.652.12-.886-.283-.886-.618 0-.42.017-1.808.017-3.532 0-1.206-.402-1.976-.87-2.378 2.862-.318 5.875-1.406 5.875-6.345 0-1.406-.502-2.544-1.322-3.448.134-.336.57-1.642-.134-3.416-1.072-.335-3.533 1.322-3.533 1.322-1.02-.284-2.125-.435-3.213-.435s-2.193.152-3.214.436c0 0-2.46-1.657-3.533-1.322-.703 1.774-.267 3.08-.133 3.415-.82.903-1.323 2.04-1.323 3.447 0 4.922 2.997 6.027 5.86 6.345-.37.335-.704.904-.82 1.725-.738.334-2.613.904-3.734-1.072-.703-1.222-1.976-1.322-1.976-1.322-1.255-.017-.083.787-.083.787.838.385 1.424 1.875 1.424 1.875.753 2.293 4.336 1.523 4.336 1.523 0 1.07.016 2.076.016 2.394 0 .335-.234.737-.887.62C3.682 23.603 0 18.78 0 13.106 0 6.01 5.76.25 12.857.25zM4.872 18.715c-.034.067-.134.084-.218.034-.1-.05-.15-.135-.117-.202.033-.05.117-.067.217-.034.1.05.15.134.118.2zm.52.57c-.068.067-.186.033-.27-.05-.083-.1-.1-.218-.033-.27.066-.065.183-.032.267.052.084.1.1.217.034.268zm.5.753c-.066.05-.2 0-.284-.117-.083-.116-.083-.25 0-.3.084-.068.218-.017.285.1.084.117.084.25 0 .318zm.704.703c-.067.085-.218.068-.335-.05-.116-.1-.15-.25-.066-.317.067-.084.218-.067.335.05.1.1.133.25.066.318zm.954.42c-.033.1-.184.15-.318.1-.15-.033-.25-.15-.217-.25.033-.102.184-.152.318-.118.15.05.25.167.217.268zm1.055.083c0 .1-.117.184-.268.184-.167.017-.285-.067-.285-.184 0-.1.118-.184.268-.184.15-.018.285.066.285.183zm.97-.167c.018.1-.083.2-.233.234-.15.034-.285-.033-.302-.134-.017-.117.084-.217.235-.25.15-.018.284.05.3.15z" fill="#E3E3E3" fill-rule="evenodd"/></svg>