<svg id="Calque_1" data-name="Calque 1" xmlns="http://www.w3.org/2000/svg" xmlns:xlink="http://www.w3.org/1999/xlink" viewBox="0 0 65.72 65.72"><defs><style>.cls-1,.cls-2{fill:none;}.cls-1{clip-rule:evenodd;}.cls-3{clip-path:url(#clip-path);}.cls-4{clip-path:url(#clip-path-2);}.cls-5{fill:#fff;}</style><clipPath id="clip-path" transform="translate(3.13 6.24)"><path class="cls-1" d="M3.95,26.62c4.3-.62,8.6-.95,12.89-1.17,2.15-.14,4.3-.17,6.45-.25l6.45-.08c4.3,0,8.6.11,12.89.33s8.6.55,12.89,1.17c-4.3.62-8.6,1-12.89,1.17s-8.6.34-12.89.33L23.29,28c-2.15-.08-4.3-.11-6.45-.25-4.3-.22-8.6-.54-12.89-1.17"/></clipPath><clipPath id="clip-path-2" transform="translate(3.13 6.24)"><rect class="cls-2" x="-1130.46" y="18.56" width="1440" height="900" transform="translate(-451.54 -153) rotate(-45)"/></clipPath></defs><title>Cross1</title><g class="cls-3"><g class="cls-4"><rect class="cls-5" x="6.5" y="3.38" width="46.47" height="46.47" transform="translate(-6.99 35.07) rotate(-45)"/></g></g></svg>