<svg id="Calque_1" data-name="Calque 1" xmlns="http://www.w3.org/2000/svg" xmlns:xlink="http://www.w3.org/1999/xlink" viewBox="0 0 220.39 12">
	<defs>
		<style>.cls-1,.cls-2{fill:none;}.cls-1{clip-rule:evenodd;}.cls-3{clip-path:url(#clip-path);}.cls-4{clip-path:url(#clip-path-2);}.cls-5{fill:#fff;}</style>
		<clipPath id="clip-path" transform="translate(-1.42 -4.31)">
			<path class="cls-1" d="M6.42,10.31c8.77-.22,17.53-.32,26.3-.49L59,9.54c17.53-.16,35.06-.15,52.6-.23,17.53.08,35.06.07,52.6.23l26.3.28c8.77.17,17.53.26,26.3.49-8.77.23-17.53.32-26.3.49l-26.3.28c-17.53.16-35.06.15-52.6.23-17.53-.08-35.07-.07-52.6-.23l-26.3-.28c-8.77-.16-17.53-.26-26.3-.49"/>
		</clipPath>
		<clipPath id="clip-path-2" transform="translate(-1.42 -4.31)">
			<rect class="cls-2" x="-420.58" y="-325.69" width="1440" height="900"/>
		</clipPath>
	</defs>
	<title>Traits</title>
	<g class="cls-3"><g class="cls-4"><rect class="cls-5" width="220.39" height="12"/></g></g>
</svg>