<?xml version="1.0" encoding="UTF-8"?>
<svg width="52px" height="3px" viewBox="0 0 52 3" version="1.1" xmlns="http://www.w3.org/2000/svg" xmlns:xlink="http://www.w3.org/1999/xlink">
    <!-- Generator: Sketch 41.2 (35397) - http://www.bohemiancoding.com/sketch -->
    <title>Fill 1</title>
    <desc>Created with Sketch.</desc>
    <defs></defs>
    <g id="Page-1" stroke="none" stroke-width="1" fill="none" fill-rule="evenodd">
        <g id="About" transform="translate(-65.000000, -489.000000)" fill="#FFFFFF">
            <g id="cross" transform="translate(65.000000, 432.000000)">
                <path d="M44.5419754,76.5444306 C41.2326228,73.7764055 38.0661066,70.861816 34.9218506,67.9286741 C31.7627545,65.0085188 28.7075394,61.9863252 25.6523243,58.9622763 C22.6286446,55.9085434 19.6068198,52.8511001 16.685166,49.6934736 L12.311033,44.951468 C10.899364,43.3225632 9.44317471,41.7400394 8.07231621,40.0703191 C9.74183265,41.441345 11.3241632,42.8977121 12.9528693,44.3095534 L17.694296,48.6842204 C20.8515371,51.6062309 23.9086072,54.6284246 26.9619672,57.6524735 C29.985647,60.7080616 33.0074718,63.7636496 35.9272705,66.9231314 C38.8600544,70.0677712 41.7742881,73.234674 44.5419754,76.5444306" id="Fill-1" transform="translate(26.307146, 58.307375) rotate(-45.000000) translate(-26.307146, -58.307375) "></path>
            </g>
        </g>
    </g>
</svg>