<?xml version="1.0" encoding="UTF-8"?>
<svg width="26px" height="27px" viewBox="0 0 26 27" version="1.1" xmlns="http://www.w3.org/2000/svg" xmlns:xlink="http://www.w3.org/1999/xlink">
    <!-- Generator: Sketch 41.2 (35397) - http://www.bohemiancoding.com/sketch -->
    <title>linkedin square</title>
    <desc>Created with Sketch.</desc>
    <defs></defs>
    <g id="Page-1" stroke="none" stroke-width="1" fill="none" fill-rule="evenodd">
        <g id="About" transform="translate(-1187.000000, -735.000000)" fill="#E3E3E3">
            <g id="linkedin-square" transform="translate(1187.000000, 735.000000)">
                <path d="M3.967639,22.24327 L3.967639,10.624953 L7.834831,10.624953 L7.834831,22.24327 L3.967639,22.24327 Z M8.085947,7.04236 C8.085947,8.147272 7.248893,9.05129 5.892864,9.05129 L5.876123,9.05129 C4.570318,9.05129 3.733263,8.147272 3.733263,7.04236 C3.733263,5.903965 4.6038,5.033429 5.926346,5.033429 C7.248893,5.033429 8.069206,5.903965 8.085947,7.04236 Z M17.879486,22.24327 L17.879486,16.032326 C17.879486,14.458663 17.32703,13.403974 15.937519,13.403974 C14.866089,13.403974 14.229928,14.123841 13.945329,14.810226 C13.844883,15.061342 13.828141,15.412905 13.828141,15.747727 L13.828141,22.24327 L9.960949,22.24327 C10.011173,11.713124 9.960949,10.624953 9.960949,10.624953 L13.828141,10.624953 L13.828141,12.315803 L13.794659,12.315803 C14.296892,11.512231 15.217652,10.357096 17.293547,10.357096 C19.838193,10.357096 21.746678,12.014464 21.746678,15.580316 L21.746678,22.24327 L17.879486,22.24327 Z M25.714316,5.535661 C25.714316,2.873828 23.554716,0.714227 20.892882,0.714227 L4.821434,0.714227 C2.159601,0.714227 0,2.873828 0,5.535661 L0,21.607109 C0,24.268943 2.159601,26.428543 4.821434,26.428543 L20.892882,26.428543 C23.554716,26.428543 25.714316,24.268943 25.714316,21.607109 L25.714316,5.535661 Z" id="Shape"></path>
            </g>
        </g>
    </g>
</svg>