<svg width="26" height="27" viewBox="0 0 26 27" xmlns="http://www.w3.org/2000/svg"><title>linkedin square</title><path d="M3.968 22.243V10.625h3.867v11.618H3.968zm4.118-15.2c0 1.104-.837 2.008-2.193 2.008h-.017c-1.306 0-2.143-.903-2.143-2.008 0-1.138.87-2.01 2.193-2.01s2.143.872 2.16 2.01zm9.793 15.2v-6.21c0-1.574-.553-2.63-1.942-2.63-1.072 0-1.708.72-1.993 1.407-.1.25-.117.603-.117.938v6.495H9.96c.05-10.53 0-11.618 0-11.618h3.868v1.69h-.033c.502-.803 1.423-1.958 3.5-1.958 2.543 0 4.452 1.657 4.452 5.223v6.663H17.88zm7.834-16.707c0-2.662-2.16-4.822-4.82-4.822H4.82C2.16.714 0 2.874 0 5.536v16.07c0 2.663 2.16 4.823 4.82 4.823h16.073c2.662 0 4.82-2.16 4.82-4.823V5.537z" fill="#E3E3E3" fill-rule="evenodd"/></svg>