<svg width="26" height="27" viewBox="0 0 26 27" xmlns="http://www.w3.org/2000/svg"><title>twitter square</title><path d="M21.43 8.783c-.47.72-1.073 1.34-1.76 1.825.018.15.018.302.018.452 0 4.654-3.55 10.01-10.012 10.01-1.992 0-3.833-.585-5.39-1.572.268.033.552.05.837.05 1.657 0 3.164-.57 4.37-1.507-1.54-.032-2.83-1.053-3.282-2.443.22.034.436.067.654.067.318 0 .552-.05.854-.134-1.608-.318-2.897-1.74-2.897-3.45v-.032c.537.25 1.09.418 1.676.435-.955-.636-1.524-1.707-1.524-2.93 0-.636.184-1.255.486-1.774 1.74 2.142 4.336 3.53 7.265 3.682-.067-.25-.083-.536-.083-.804 0-1.942 1.573-3.515 3.515-3.515 1.005 0 1.925.418 2.562 1.105.803-.15 1.556-.452 2.243-.854-.268.82-.82 1.523-1.557 1.96.72-.102 1.39-.286 2.026-.57zm4.284-3.247c0-2.662-2.16-4.822-4.82-4.822H4.82C2.16.714 0 2.874 0 5.536v16.07c0 2.663 2.16 4.823 4.82 4.823h16.073c2.662 0 4.82-2.16 4.82-4.823V5.537z" fill="#E3E3E3" fill-rule="evenodd"/></svg>